<mxfile host="app.diagrams.net" modified="2020-07-30T02:47:23.998Z" agent="5.0 (X11)" etag="G_N9QWfLGaOeGsT0deBs" version="13.5.5" type="github">
  <diagram id="C5RBs43oDa-KdzZeNtuy" name="Page-1">
    <mxGraphModel dx="868" dy="434" grid="1" gridSize="10" guides="1" tooltips="1" connect="1" arrows="1" fold="1" page="1" pageScale="1" pageWidth="827" pageHeight="1169" math="0" shadow="0" extFonts="Sans Serif^https://fonts.googleapis.com/css?family=Sans+Serif">
      <root>
        <mxCell id="WIyWlLk6GJQsqaUBKTNV-0" />
        <mxCell id="WIyWlLk6GJQsqaUBKTNV-1" parent="WIyWlLk6GJQsqaUBKTNV-0" />
        <mxCell id="XwpfoNckIkDcyTPOol0i-13" value="" style="rounded=1;whiteSpace=wrap;html=1;fillColor=#dae8fc;strokeColor=#6c8ebf;" vertex="1" parent="WIyWlLk6GJQsqaUBKTNV-1">
          <mxGeometry x="210" y="240" width="350" height="140" as="geometry" />
        </mxCell>
        <mxCell id="XwpfoNckIkDcyTPOol0i-0" value="" style="endArrow=classic;html=1;strokeColor=#000000;fillColor=#000000;" edge="1" parent="WIyWlLk6GJQsqaUBKTNV-1" source="WIyWlLk6GJQsqaUBKTNV-3">
          <mxGeometry width="50" height="50" relative="1" as="geometry">
            <mxPoint x="413" y="120" as="sourcePoint" />
            <mxPoint x="413" y="157" as="targetPoint" />
            <Array as="points" />
          </mxGeometry>
        </mxCell>
        <mxCell id="XwpfoNckIkDcyTPOol0i-2" value="&lt;div&gt;&lt;font style=&quot;font-size: 12px&quot; face=&quot;Helvetica&quot;&gt;&lt;b&gt;Data in .nii extension&lt;/b&gt;&lt;/font&gt;&lt;/div&gt;" style="text;html=1;resizable=0;autosize=1;align=center;verticalAlign=middle;points=[];fillColor=none;strokeColor=none;rounded=0;" vertex="1" parent="WIyWlLk6GJQsqaUBKTNV-1">
          <mxGeometry x="240" y="200" width="130" height="20" as="geometry" />
        </mxCell>
        <mxCell id="XwpfoNckIkDcyTPOol0i-6" value="&lt;div&gt;&lt;font face=&quot;Sans Serif&quot;&gt;&lt;b&gt;Noise Removal&lt;/b&gt;&lt;/font&gt;&lt;/div&gt;&lt;div&gt;&lt;font face=&quot;Sans Serif&quot;&gt;&lt;b&gt;&amp;amp; Normalization&lt;/b&gt;&lt;/font&gt;&lt;/div&gt;&lt;div&gt;&lt;font face=&quot;Sans Serif&quot;&gt;&lt;br&gt;&lt;/font&gt;&lt;/div&gt;&lt;div&gt;&lt;font face=&quot;Sans Serif&quot;&gt;Skull Stripping&lt;/font&gt;&lt;/div&gt;&lt;div&gt;&lt;font face=&quot;Sans Serif&quot;&gt;Bias Correction&lt;b&gt;&lt;br&gt;&lt;/b&gt;&lt;/font&gt;&lt;/div&gt;" style="rounded=1;whiteSpace=wrap;html=1;fillColor=#dae8fc;strokeColor=#6c8ebf;gradientColor=#7ea6e0;" vertex="1" parent="WIyWlLk6GJQsqaUBKTNV-1">
          <mxGeometry x="240" y="260" width="120" height="100" as="geometry" />
        </mxCell>
        <mxCell id="XwpfoNckIkDcyTPOol0i-11" value="&lt;div&gt;&lt;font face=&quot;Sans Serif&quot;&gt;&lt;b&gt;Segmentation &lt;br&gt;&lt;/b&gt;&lt;/font&gt;&lt;/div&gt;&lt;div&gt;&lt;font face=&quot;Sans Serif&quot;&gt;&lt;br&gt;&lt;/font&gt;&lt;/div&gt;&lt;div&gt;&lt;font face=&quot;Sans Serif&quot;&gt;Using Otsu threshold and HMRF Tissue Classifier&lt;br&gt;&lt;/font&gt;&lt;/div&gt;" style="rounded=1;whiteSpace=wrap;html=1;fillColor=#dae8fc;strokeColor=#6c8ebf;gradientColor=#7ea6e0;" vertex="1" parent="WIyWlLk6GJQsqaUBKTNV-1">
          <mxGeometry x="414" y="260" width="120" height="100" as="geometry" />
        </mxCell>
        <mxCell id="XwpfoNckIkDcyTPOol0i-12" value="" style="endArrow=classic;html=1;strokeColor=#000000;fillColor=#000000;entryX=0;entryY=0.5;entryDx=0;entryDy=0;exitX=1;exitY=0.5;exitDx=0;exitDy=0;" edge="1" parent="WIyWlLk6GJQsqaUBKTNV-1" source="XwpfoNckIkDcyTPOol0i-6" target="XwpfoNckIkDcyTPOol0i-11">
          <mxGeometry width="50" height="50" relative="1" as="geometry">
            <mxPoint x="390" y="250" as="sourcePoint" />
            <mxPoint x="440" y="200" as="targetPoint" />
          </mxGeometry>
        </mxCell>
        <mxCell id="WIyWlLk6GJQsqaUBKTNV-3" value="&lt;font face=&quot;Sans Serif&quot;&gt;&lt;b&gt;ADNI Dataset&lt;/b&gt;&lt;/font&gt;" style="rounded=1;whiteSpace=wrap;html=1;fontSize=12;glass=0;strokeWidth=1;shadow=0;fillColor=#dae8fc;fontFamily=Sans Serif;FType=g;strokeColor=#6c8ebf;gradientColor=#7ea6e0;" parent="WIyWlLk6GJQsqaUBKTNV-1" vertex="1">
          <mxGeometry x="325" y="140" width="120" height="40" as="geometry" />
        </mxCell>
        <mxCell id="XwpfoNckIkDcyTPOol0i-16" value="&lt;font face=&quot;Helvetica&quot;&gt;&lt;b&gt;Preprocessing Data &lt;br&gt;&lt;/b&gt;&lt;/font&gt;" style="text;html=1;strokeColor=none;fillColor=none;align=center;verticalAlign=middle;whiteSpace=wrap;rounded=0;" vertex="1" parent="WIyWlLk6GJQsqaUBKTNV-1">
          <mxGeometry x="60" y="300" width="120" height="20" as="geometry" />
        </mxCell>
        <mxCell id="XwpfoNckIkDcyTPOol0i-18" value="" style="endArrow=classic;html=1;strokeColor=#000000;fillColor=#000000;exitX=0.5;exitY=1;exitDx=0;exitDy=0;entryX=0.5;entryY=0;entryDx=0;entryDy=0;" edge="1" parent="WIyWlLk6GJQsqaUBKTNV-1" source="WIyWlLk6GJQsqaUBKTNV-3" target="XwpfoNckIkDcyTPOol0i-13">
          <mxGeometry width="50" height="50" relative="1" as="geometry">
            <mxPoint x="390" y="300" as="sourcePoint" />
            <mxPoint x="390" y="210" as="targetPoint" />
          </mxGeometry>
        </mxCell>
        <mxCell id="XwpfoNckIkDcyTPOol0i-19" value="&lt;div&gt;&lt;font face=&quot;Sans Serif&quot;&gt;&lt;b&gt;Simple CNN &lt;br&gt;&lt;/b&gt;&lt;/font&gt;&lt;/div&gt;&lt;div&gt;&lt;font face=&quot;Sans Serif&quot;&gt;&lt;b&gt;network&lt;/b&gt;&lt;/font&gt;&lt;/div&gt;" style="rounded=1;whiteSpace=wrap;html=1;fillColor=#dae8fc;gradientColor=#7ea6e0;strokeColor=#6c8ebf;" vertex="1" parent="WIyWlLk6GJQsqaUBKTNV-1">
          <mxGeometry x="325" y="440" width="120" height="60" as="geometry" />
        </mxCell>
        <mxCell id="XwpfoNckIkDcyTPOol0i-20" value="" style="endArrow=classic;html=1;strokeColor=#000000;fillColor=#000000;exitX=0.5;exitY=1;exitDx=0;exitDy=0;entryX=0.5;entryY=0;entryDx=0;entryDy=0;" edge="1" parent="WIyWlLk6GJQsqaUBKTNV-1" source="XwpfoNckIkDcyTPOol0i-13" target="XwpfoNckIkDcyTPOol0i-19">
          <mxGeometry width="50" height="50" relative="1" as="geometry">
            <mxPoint x="390" y="330" as="sourcePoint" />
            <mxPoint x="440" y="280" as="targetPoint" />
          </mxGeometry>
        </mxCell>
        <mxCell id="XwpfoNckIkDcyTPOol0i-21" value="&lt;div&gt;&lt;b&gt;2D Image Dataset &lt;br&gt;&lt;/b&gt;&lt;/div&gt;" style="text;html=1;strokeColor=none;fillColor=none;align=center;verticalAlign=middle;whiteSpace=wrap;rounded=0;" vertex="1" parent="WIyWlLk6GJQsqaUBKTNV-1">
          <mxGeometry x="230" y="400" width="170" height="20" as="geometry" />
        </mxCell>
        <mxCell id="XwpfoNckIkDcyTPOol0i-22" value="" style="endArrow=classic;html=1;strokeColor=#000000;fillColor=#000000;exitX=1;exitY=0.5;exitDx=0;exitDy=0;" edge="1" parent="WIyWlLk6GJQsqaUBKTNV-1" source="XwpfoNckIkDcyTPOol0i-19" target="XwpfoNckIkDcyTPOol0i-23">
          <mxGeometry width="50" height="50" relative="1" as="geometry">
            <mxPoint x="540" y="545" as="sourcePoint" />
            <mxPoint x="520" y="470" as="targetPoint" />
          </mxGeometry>
        </mxCell>
        <mxCell id="XwpfoNckIkDcyTPOol0i-23" value="&lt;font face=&quot;Sans Serif&quot;&gt;&lt;b&gt;Prediction&lt;/b&gt;&lt;/font&gt;" style="rounded=1;whiteSpace=wrap;html=1;fillColor=#fff2cc;gradientColor=#ffd966;strokeColor=#d6b656;" vertex="1" parent="WIyWlLk6GJQsqaUBKTNV-1">
          <mxGeometry x="580" y="440" width="120" height="60" as="geometry" />
        </mxCell>
        <mxCell id="XwpfoNckIkDcyTPOol0i-26" value="&lt;b&gt;Trained Network predicts output &lt;/b&gt;" style="text;html=1;strokeColor=none;fillColor=none;align=center;verticalAlign=middle;whiteSpace=wrap;rounded=0;" vertex="1" parent="WIyWlLk6GJQsqaUBKTNV-1">
          <mxGeometry x="450" y="440" width="110" height="20" as="geometry" />
        </mxCell>
      </root>
    </mxGraphModel>
  </diagram>
</mxfile>
